<svg width="4000" height="1530" viewBox="0 0 4000 1530" fill="none" xmlns="http://www.w3.org/2000/svg">
<path d="M2758.93 587.551C2793.21 587.551 2821.84 593.206 2844.8 604.518C2868.11 615.831 2885.77 631.942 2897.77 652.853C2909.76 673.42 2915.76 697.931 2915.76 726.383V731.011H2833.49V728.44C2833.49 703.759 2827.84 686.618 2816.52 677.02C2805.21 667.079 2785.84 662.109 2758.42 662.109C2738.88 662.109 2723.11 665.022 2711.11 670.85C2699.12 676.677 2690.2 686.961 2684.37 701.702C2678.89 716.442 2676.15 737.524 2676.15 764.947C2676.15 792.028 2678.89 813.111 2684.37 828.194C2690.2 842.934 2699.12 853.218 2711.11 859.046C2723.11 864.873 2738.88 867.787 2758.42 867.787C2785.84 867.787 2805.21 862.988 2816.52 853.389C2827.84 843.448 2833.49 826.137 2833.49 801.455V798.884H2915.76V803.513C2915.76 831.965 2909.76 856.646 2897.77 877.557C2885.77 898.124 2868.11 914.064 2844.8 925.376C2821.84 936.688 2793.21 942.344 2758.93 942.345C2724.31 942.345 2694.66 935.146 2669.98 920.749C2645.64 906.008 2626.79 885.441 2613.42 859.046C2600.39 832.307 2593.88 800.941 2593.88 764.947C2593.88 728.954 2600.39 697.76 2613.42 671.365C2626.79 644.626 2645.64 624.058 2669.98 609.661C2694.66 594.92 2724.31 587.551 2758.93 587.551Z" fill="black"/>
<path fill-rule="evenodd" clip-rule="evenodd" d="M1484.13 592.692C1508.13 592.692 1529.55 597.149 1548.41 606.062C1567.26 614.974 1582 627.829 1592.63 644.626C1603.6 661.423 1609.08 681.82 1609.08 705.815C1609.08 729.811 1603.6 750.379 1592.63 767.518C1582 784.315 1567.26 797.17 1548.41 806.083C1529.55 814.653 1508.13 818.938 1484.13 818.938H1386.44V937.203H1349.41V592.692H1484.13ZM1386.44 786.029H1489.79C1517.9 786.029 1538.64 779.859 1552.01 767.518C1565.38 754.835 1572.06 734.267 1572.06 705.815C1572.06 677.706 1565.38 657.481 1552.01 645.14C1538.64 632.457 1517.9 626.115 1489.79 626.115H1386.44V786.029Z" fill="black"/>
<path fill-rule="evenodd" clip-rule="evenodd" d="M1906.45 937.203H1866.86L1825.34 836.421H1655.31L1614.39 937.203H1575.31L1715.17 592.692H1767.11L1906.45 937.203ZM1718.77 680.106L1669.09 802.484H1811.36L1760.94 680.106L1741.4 627.658H1738.83L1718.77 680.106Z" fill="black"/>
<path fill-rule="evenodd" clip-rule="evenodd" d="M2075.31 592.692C2098.96 592.692 2119.7 596.634 2137.53 604.518C2155.7 612.06 2169.75 623.372 2179.69 638.455C2189.98 653.538 2195.12 671.707 2195.12 692.961C2195.12 712.157 2190.83 728.954 2182.26 743.351C2173.69 757.406 2161.7 768.375 2146.27 776.259C2131.19 783.801 2113.19 787.915 2092.28 788.6V791.172C2103.25 794.6 2112.5 799.913 2120.05 807.111C2127.59 814.31 2134.44 823.223 2140.61 833.85L2199.23 937.203H2156.55L2101.02 840.535C2095.54 830.593 2089.37 822.366 2082.51 815.853C2076 809.34 2067.94 804.54 2058.34 801.455C2048.74 798.37 2036.58 796.828 2021.84 796.828H1971.96V937.203H1934.94V592.692H2075.31ZM1971.96 765.462H2080.97C2107.36 765.462 2126.73 759.977 2139.07 749.007C2151.75 737.695 2158.1 719.87 2158.1 695.532C2158.1 671.879 2151.75 654.396 2139.07 643.084C2126.73 631.771 2107.36 626.115 2080.97 626.115H1971.96V765.462Z" fill="black"/>
<path d="M2480.72 626.115H2358.85V937.203H2322.35V626.115H2199.97V592.692H2480.72V626.115Z" fill="black"/>
<path d="M2545.41 937.203H2508.38V592.692H2545.41V937.203Z" fill="black"/>
<path d="M3030.22 937.203H2953.09V592.692H3030.22V937.203Z" fill="black"/>
<path d="M3223.83 850.818H3228.98L3315.36 592.692H3401.75L3276.8 937.203H3173.96L3049.01 592.692H3135.91L3223.83 850.818Z" fill="black"/>
<path d="M1077.11 762.246C1139.25 762.246 1173.39 712.844 1173.39 648.532V530.511C1173.39 514.953 1157.28 505.083 1144.1 512.565L1142.98 513.201L686.392 756.832C679.875 760.309 679.875 769.651 686.392 773.128L1142.98 1016.76L1144.1 1017.4C1157.28 1024.88 1173.39 1015.01 1173.39 999.449V881.428C1173.39 817.618 1138.58 760.016 1077.11 759.21V762.246Z" fill="#FF6E46"/>
<path d="M694.531 762.246C632.39 762.246 598.256 712.844 598.256 648.532V530.511C598.256 514.953 614.365 505.083 627.545 512.565L628.666 513.201L1085.25 756.832C1091.77 760.309 1091.77 769.651 1085.25 773.128L628.666 1016.76L627.545 1017.4C614.365 1024.88 598.256 1015.01 598.256 999.449V881.428C598.256 817.618 633.06 760.016 694.531 759.21V762.246Z" fill="black"/>
</svg>
